Coordinates
version=1
nRows=11
nColumns=36
inDegrees=yes

Units are S.I. units (second, meters, Newtons, ...)
If the header above contains a line with 'inDegrees', this indicates whether rotational values are in degrees (yes) or radians (no).

endheader
time	pelvis_tilt	pelvis_list	pelvis_rotation	pelvis_tx	pelvis_ty	pelvis_tz	hip_flexion_r	hip_adduction_r	hip_rotation_r	knee_angle_r	knee_angle_r_beta	ankle_angle_r	subtalar_angle_r	mtp_angle_r	hip_flexion_l	hip_adduction_l	hip_rotation_l	knee_angle_l	knee_angle_l_beta	ankle_angle_l	subtalar_angle_l	mtp_angle_l	lumbar_extension	lumbar_bending	lumbar_rotation	arm_flex_r	arm_add_r	arm_rot_r	elbow_flex_r	pro_sup_r	arm_flex_l	arm_add_l	arm_rot_l	elbow_flex_l	pro_sup_l
     10.59000000	    -29.99005183	     -0.37963701	     -0.47734055	     -0.40235674	      0.59333709	     -0.70864814	    106.47728271	    -15.36747410	      4.94867553	     94.18265421	      1.64379741	     24.44000292	      0.46952382	     -7.49999987	    106.70273749	    -14.52949327	      3.21251589	     94.66907131	      1.65228699	     23.96642703	     -2.92189650	     -7.49999987	    -24.61880949	      1.19861452	      1.66931578	     52.51763642	    -24.05527726	      7.73220990	    108.03428412	     96.36267995	     42.66374313	    -21.75721036	      5.54829692	    113.08245170	    100.40513985
     10.60000000	    -29.30816508	     -0.44605705	     -0.54254042	     -0.40585202	      0.58928894	     -0.70890470	    106.59471439	    -15.33410767	      5.04636525	     94.73064540	      1.65336166	     24.33543693	      0.44929568	     -7.49999987	    106.91189590	    -14.59070778	      3.40361518	     95.31207858	      1.66350959	     23.88544271	     -2.96323824	     -7.49999987	    -24.74134902	      1.31631735	      1.65088415	     52.33839976	    -24.08214435	      7.82516662	    107.96930403	     96.35096908	     42.64208751	    -21.84998135	      5.72792668	    112.97338310	    100.37188376
     10.61000000	    -28.41405394	     -0.66303340	     -0.62547135	     -0.40928254	      0.58567069	     -0.70931796	    106.42141601	    -15.39473561	      4.90647216	     95.24478700	      1.66233513	     23.97943246	      0.55236551	     -7.49999987	    106.97808088	    -14.65897656	      3.76781617	     95.97960189	      1.67516007	     23.60639848	     -2.93839806	     -7.49999987	    -25.05274737	      1.57840101	      1.77967729	     52.27495186	    -24.24554469	      7.95532209	    107.74246074	     96.29351898	     42.82431719	    -22.03495795	      6.39425957	    112.64089766	    100.23260405
     10.62000000	    -27.69940073	     -0.74689295	     -0.59035630	     -0.41270645	      0.58185209	     -0.71001115	    106.49821682	    -15.52187935	      5.02511641	     95.79246687	      1.67189395	     23.87351204	      0.56234506	     -7.49999987	    107.12761776	    -14.58995492	      3.92040617	     96.57645278	      1.68557708	     23.51483607	     -2.98066782	     -7.49999987	    -25.09389123	      1.76612940	      1.69539895	     51.99134622	    -24.31575010	      7.98709588	    107.72094457	     96.27305129	     42.78635728	    -22.01071122	      6.57402730	    112.53638285	    100.17010867
     10.63000000	    -26.96152561	     -0.78724179	     -0.57935375	     -0.41619559	      0.57834785	     -0.71046600	    106.51488408	    -15.55055303	      5.19805442	     96.25641615	      1.67999139	     23.77024048	      0.58010079	     -7.49999987	    107.19107536	    -14.49495416	      4.12102536	     97.09839732	      1.69468673	     23.42305417	     -3.01746854	     -7.49999987	    -25.13990424	      1.88010239	      1.61151939	     51.68902719	    -24.31867064	      8.04574625	    107.69065758	     96.26112407	     42.71879780	    -22.01592972	      6.73617789	    112.44610210	    100.13437799
     10.64000000	    -26.10822828	     -0.80199965	     -0.59507538	     -0.41962660	      0.57513757	     -0.71077392	    106.42254639	    -15.54593825	      5.37570055	     96.75282626	      1.68865538	     23.62489942	      0.61136942	     -7.49999987	    107.11172488	    -14.48003330	      4.25951651	     97.62283541	      1.70383990	     23.29051243	     -3.04924358	     -7.49999987	    -25.25420272	      1.94306905	      1.53338546	     51.33198407	    -24.33189640	      8.11500744	    107.63155249	     96.24492995	     42.62030289	    -22.08673808	      6.95933063	    112.31236933	    100.09131350
     10.65000000	    -24.89743991	     -0.64111194	     -0.63970923	     -0.42308825	      0.57274456	     -0.71090081	    106.01943062	    -15.46590477	      5.72233541	     97.22157405	      1.69683657	     23.25982301	      0.79475996	     -7.49999987	    106.55162487	    -14.59738098	      4.14243116	     98.09065851	      1.71200496	     22.83459213	     -3.35727581	     -7.49999987	    -25.77830054	      1.61819214	      1.87654612	     50.66156141	    -24.77472658	      7.54456198	    107.93798458	     95.91341971	     43.46390919	    -22.02895986	      8.36964825	    111.56175958	     99.17548135
     10.66000000	    -23.87826971	     -0.63934683	     -0.71531088	     -0.42648199	      0.57006361	     -0.71106056	    105.69810328	    -15.34469094	      5.90544219	     97.63228250	      1.70400479	     23.03586515	      0.79294299	     -7.49999987	    106.26072870	    -14.67702633	      4.26937781	     98.58550652	      1.72064168	     22.66023634	     -3.32510036	     -7.49999987	    -26.00759074	      1.60366597	      1.81346506	     50.34472171	    -24.63230766	      7.59037754	    107.79735471	     95.85431802	     43.39470752	    -22.12942326	      8.59227999	    111.49656781	     99.04629230
     10.67000000	    -22.86195201	     -0.65230301	     -0.63613859	     -0.42984151	      0.56737185	     -0.71152803	    105.39760422	    -15.41720776	      6.09815447	     98.08332417	      1.71187695	     22.85736511	      0.76019273	     -7.49999987	    105.93930792	    -14.54046946	      4.38956382	     99.03953997	      1.72856606	     22.44276568	     -3.28133183	     -7.49999987	    -26.18138457	      1.66510329	      1.65802857	     49.93582127	    -24.43214148	      7.50551069	    107.72449141	     95.80483123	     43.35647366	    -22.18181864	      8.86023595	    111.39634199	     98.94109772
     10.68000000	    -21.81242827	     -0.62352141	     -0.37530022	     -0.43314448	      0.56469836	     -0.71246025	    105.11169577	    -15.73078017	      6.38458776	     98.58284679	      1.72059526	     22.71638843	      0.77181251	     -7.49999987	    105.54756663	    -14.18112700	      4.40209423	     99.45945941	      1.73589504	     22.21219730	     -3.25030128	     -7.49999987	    -26.31530080	      1.75976366	      1.34884041	     49.45404028	    -24.27981167	      7.41994957	    107.70903012	     95.75826329	     43.30743103	    -22.18647350	      9.17688776	    111.27282582	     98.84024376
     10.69000000	    -20.64431874	     -0.50007940	     -0.18664707	     -0.43642798	      0.56221190	     -0.71328967	    104.73995308	    -15.94419702	      6.78267028	     99.08114718	      1.72929225	     22.57859217	      0.94463209	     -7.49999987	    105.00110573	    -13.94626550	      4.28239916	     99.89136788	      1.74343326	     21.98877535	     -3.34670732	     -7.49999987	    -26.50506225	      1.71913328	      1.07949720	     48.93505695	    -24.23092572	      7.40710168	    107.68318939	     95.67609267	     43.25193968	    -22.20748874	      9.59900293	    111.11754110	     98.63854447
